<svg width="16" height="16" viewBox="0 0 16 16" fill="none" xmlns="http://www.w3.org/2000/svg">
<path d="M14.9289 1.07107C15.1633 1.30549 15.295 1.62343 15.295 1.95495C15.295 2.28647 15.1633 2.60441 14.9289 2.83883L9.62562 8.14214L14.9289 13.4454C15.1633 13.6799 15.295 13.9978 15.295 14.3293C15.295 14.6608 15.1633 14.9788 14.9289 15.2132C14.6945 15.4476 14.3766 15.5793 14.045 15.5793C13.7135 15.5793 13.3956 15.4476 13.1611 15.2132L7.85785 9.9099L2.55455 15.2132C2.32013 15.4476 2.00218 15.5793 1.67067 15.5793C1.33914 15.5793 1.0212 15.4476 0.786781 15.2132C0.552361 14.9788 0.420666 14.6608 0.420666 14.3293C0.420665 13.9978 0.552361 13.6799 0.786781 13.4454L6.09008 8.14214L0.786781 2.83883C0.552361 2.60441 0.420665 2.28647 0.420665 1.95495C0.420665 1.62343 0.552361 1.30549 0.786781 1.07107C1.0212 0.836647 1.33914 0.704951 1.67066 0.704951C2.00219 0.704952 2.32013 0.836647 2.55455 1.07107L7.85785 6.37437L13.1611 1.07107C13.3956 0.836647 13.7135 0.704952 14.045 0.704951C14.3766 0.704951 14.6945 0.836647 14.9289 1.07107V1.07107Z" fill="#CBCBCB"/>
</svg>
